<?xml version="1.0" encoding="UTF-8"?>
<svg id="Layer_1" data-name="Layer 1" xmlns="http://www.w3.org/2000/svg" version="1.1" viewBox="0 0 16 16">
  <defs>
    <style>
      .cls-1 {
        fill: #000;
        stroke-width: 0px;
      }
    </style>
  </defs>
  <g id="SVGRepo_iconCarrier" data-name="SVGRepo iconCarrier">
    <path class="cls-1" d="M13.9,9.2c0-.1-2.1-3.2-5.9-3.2s-5.9,3-5.9,3.2v.2c-.1,0,0,.2,0,.2,0,.1,2.1,3.2,5.9,3.2s5.9-3,5.9-3.2v-.2c.1,0,0-.2,0-.2ZM2.7,9.3c.3-.4,1.3-1.5,2.7-2.1-.5.6-.8,1.3-.8,2.1s.3,1.5.8,2.1c-1.5-.6-2.4-1.7-2.7-2.1ZM8,12c-1.4,0-2.6-1.2-2.6-2.7s1.2-2.7,2.6-2.7,2.6,1.2,2.6,2.7-1.2,2.7-2.6,2.7ZM10.5,11.5c.5-.6.8-1.3.8-2.1s-.3-1.5-.8-2.1c1.5.6,2.4,1.7,2.7,2.1-.3.4-1.3,1.5-2.7,2.1Z"/>
    <path class="cls-1" d="M8,8c-.7,0-1.3.6-1.3,1.3s.6,1.3,1.3,1.3,1.3-.6,1.3-1.3-.6-1.3-1.3-1.3ZM8,10c-.4,0-.7-.3-.7-.7s.3-.7.7-.7.7.3.7.7-.3.7-.7.7Z"/>
    <path class="cls-1" d="M0,0v16h16V0H0ZM15.3,15.3H.7V3.3h14.7v12ZM15.3,2.7H.7V.7h14.7v2Z"/>
    <rect class="cls-1" x="14" y="1.3" width=".7" height=".7"/>
    <rect class="cls-1" x="12.7" y="1.3" width=".7" height=".7"/>
    <rect class="cls-1" x="11.3" y="1.3" width=".7" height=".7"/>
    <rect class="cls-1" x="1.7" y="1.3" width="8.3" height=".7"/>
  </g>
</svg>