<?xml version="1.0" encoding="UTF-8"?>
<svg id="Capa_1" data-name="Capa 1" xmlns="http://www.w3.org/2000/svg" version="1.1" viewBox="0 0 16 16">
  <defs>
    <style>
      .cls-1 {
        fill: #000;
        stroke-width: 0px;
      }
    </style>
  </defs>
  <path class="cls-1" d="M15.8,15.1l-1.9-1.9c.5-.7.8-1.5.8-2.5,0-2.3-1.8-4.1-4.1-4.1-2.3,0-4.1,1.8-4.1,4.1,0,2.3,1.8,4.1,4.1,4.1.9,0,1.8-.3,2.5-.8l1.9,1.9c.2.2.6.2.8,0,0,0,0,0,0,0,.2-.2.2-.6,0-.8,0,0,0,0,0,0h0ZM7.7,10.7c0-1.6,1.3-3,3-3,1.6,0,3,1.3,3,3,0,1.6-1.3,3-3,3-1.6,0-3-1.3-3-3h0ZM12.4,4.1c0,.3-.2.6-.6.6h-5.5c-.3,0-.6-.2-.6-.6s.2-.6.6-.6h5.5c.3,0,.6.2.6.6h0ZM1.8,14.9h3.7c.3,0,.5.3.5.6,0,.3-.2.5-.5.5H1.8C.8,16,0,15.2,0,14.2V4.3C0,4.1,0,3.9.2,3.7L3,.4c.2-.2.5-.4.8-.4h9c1,0,1.8.8,1.8,1.8v4c0,.3-.2.6-.6.6s-.6-.2-.6-.6V1.8c0-.4-.3-.7-.7-.7H4.7v3.2c0,.5-.4.9-.9.9H1.1v9c0,.4.3.7.7.7h0ZM3.6,1.4l-2.2,2.7h2.2V1.4ZM5,9.7c.3,0,.6-.2.6-.6s-.2-.6-.6-.6h-1.9c-.3,0-.6.2-.6.6s.2.6.6.6h1.9ZM5,12.2c.3,0,.6-.2.6-.6s-.2-.6-.6-.6h-1.9c-.3,0-.6.2-.6.6s.2.6.6.6h1.9ZM5.5,6.1h-2.5c-.3,0-.6.2-.6.6s.2.6.6.6h2.5c.3,0,.6-.2.6-.6s-.2-.6-.6-.6Z"/>
</svg>