<?xml version="1.0" encoding="UTF-8"?>
<svg id="Capa_1" data-name="Capa 1" xmlns="http://www.w3.org/2000/svg" version="1.1" viewBox="0 0 16 16">
  <defs>
    <style>
      .cls-1 {
        fill: #000;
        stroke-width: 0px;
      }
    </style>
  </defs>
  <path class="cls-1" d="M5.1,9.6c-.9,0-1.7.7-1.9,1.6,0,.2-.3.3-.4.2-.2,0-.3-.3-.2-.5.3-.8.8-1.4,1.5-1.7-.8-.7-.9-1.9-.3-2.7.4-.5.9-.7,1.5-.7,1.1,0,1.9.9,1.9,1.9s-.3,1.1-.7,1.5c.7.3,1.3.9,1.6,1.7,0,.2,0,.4-.2.5-.2,0-.4,0-.5-.2,0,0,0,0,0,0-.2-.9-1-1.5-2-1.6,0,0-.2,0-.2,0ZM14.9,11.8v-1.8c0-.3.3-.5.5-.5.3,0,.5.2.5.5,0,0,0,0,0,0v2.2c0,1-.8,1.8-1.8,1.8H2.3c-1.3,0-2.3-.9-2.3-2.1V3.9c0-1,.8-1.8,1.8-1.8h11.9c1.3,0,2.3.9,2.3,2.1v3.6c0,.3-.2.5-.5.5s-.5-.2-.5-.5v-3.6c0-.6-.6-1-1.2-1H2.3c-.7,0-1.2.6-1.2,1.2h0v7.7c0,.6.6,1,1.2,1h11.4c.7,0,1.2-.6,1.2-1.2h0s0,0,0,0ZM5.2,6.6c-.6,0-1,.5-1,1.1,0,.6.5,1,1,1,.6,0,1-.5,1-1.1,0-.6-.5-1-1-1ZM12.6,11.4h-2.8c-.3,0-.6-.2-.6-.5s.3-.5.6-.5h2.8c.3,0,.6.2.6.5s-.3.5-.6.5h0ZM12.6,6.7h-2.8c-.3,0-.6-.2-.6-.5s.3-.5.6-.5h2.8c.3,0,.6.2.6.5s-.3.5-.6.5h0ZM12.6,8.9h-2.8c-.3,0-.6-.2-.6-.5s.3-.5.6-.5h2.8c.3,0,.6.2.6.5s-.3.5-.6.5h0Z"/>
</svg>