<?xml version="1.0" encoding="UTF-8"?>
<svg id="Capa_1" data-name="Capa 1" xmlns="http://www.w3.org/2000/svg" version="1.1" viewBox="0 0 16 16">
  <defs>
    <style>
      .cls-1 {
        fill: #000;
        stroke-width: 0px;
      }
    </style>
  </defs>
  <path class="cls-1" d="M11.4,3c1,1.2,1,3,0,4.2l.8.7c1.3-1.6,1.3-3.9,0-5.5l-.8.7Z"/>
  <path class="cls-1" d="M14.4.5l-.8.7c1.8,2.2,1.8,5.4,0,7.7l.8.7c2.1-2.6,2.1-6.4,0-9Z"/>
  <path class="cls-1" d="M11.6,10.9l-2.4-1.6.9-1.7c.2-.4.3-.8.3-1.3v-2.7c0-2.1-1.7-3.7-3.7-3.7s-3.7,1.7-3.7,3.7v2.7c0,.4.1.9.3,1.3l.9,1.7-2.4,1.6c-.8.5-1.2,1.3-1.2,2.2v2.8h12.3v-2.8c0-.9-.5-1.7-1.2-2.2ZM11.7,14.9H1.6v-1.8c0-.5.3-1,.7-1.3l3.3-2.1-1.4-2.5c-.1-.2-.2-.5-.2-.8v-2.7c0-1.5,1.2-2.7,2.7-2.7s2.7,1.2,2.7,2.7v2.7c0,.3,0,.5-.2.8l-1.4,2.5,3.3,2.1c.5.3.7.8.7,1.3v1.8Z"/>
</svg>