<?xml version="1.0" encoding="UTF-8"?>
<svg id="Capa_1" data-name="Capa 1" xmlns="http://www.w3.org/2000/svg" version="1.1" viewBox="0 0 16 16">
  <defs>
    <style>
      .cls-1 {
        fill: #000;
        stroke-width: 0px;
      }
    </style>
  </defs>
  <path class="cls-1" d="M1.6.1C.7.1,0,.9,0,1.7s.2.9.5,1.2v12c0,.6.5,1.1,1.1,1.1h0c.6,0,1.1-.5,1.1-1.1V2.9c.3-.3.5-.7.5-1.2C3.2.9,2.5.1,1.6.1Z"/>
  <path class="cls-1" d="M14.9,3c-4.2,2.2-6.5-1.6-10.4-.1-.2,0-.3.3-.3.5v6.8c0,.3.3.6.7.5,3.8-1.1,6.1,2.4,10.2.2.2-.1.3-.3.3-.4V3.2c0-.2-.2-.3-.4-.2ZM13.7,6.6c-.5.1-1,.1-1.5.1h0v1.6h0c.5,0,1,0,1.5-.2v1.6c-.5.2-1,.2-1.5.2h0v-1.6c-.5,0-1.1,0-1.6-.2v1.6c-.4,0-.7-.2-1.1-.3-.2,0-.3-.1-.5-.2v-1.6c-.6-.2-1-.3-1.6-.4v1.6c-.3,0-.6,0-.9,0s-.4,0-.7,0v-1.6c.2,0,.4,0,.7,0,.3,0,.7,0,.9,0v-1.5c-.3,0-.6-.1-.9-.1s-.4,0-.7,0v-1.6c.2,0,.4,0,.7,0,.4,0,.6,0,.9.1v1.6c.4.1.8.3,1.4.4,0,0,.1,0,.2,0v-1.6c.5.2,1,.3,1.6.4v1.6c.5.1,1,.1,1.6.1v-1.6h0c.5,0,1,0,1.5,0v1.5Z"/>
  <path class="cls-1" d="M9,6.3v1.5c.1,0,.2,0,.3.1.4.1.8.2,1.2.3v-1.5c-.6-.1-1.1-.2-1.6-.4Z"/>
</svg>